<?xml version="1.0" standalone="no"?><!DOCTYPE svg PUBLIC "-//W3C//DTD SVG 1.1//EN" "http://www.w3.org/Graphics/SVG/1.1/DTD/svg11.dtd"><svg t="1581153654399" class="icon" viewBox="0 0 1024 1024" version="1.1" xmlns="http://www.w3.org/2000/svg" p-id="7525" xmlns:xlink="http://www.w3.org/1999/xlink" width="200" height="200"><defs><style type="text/css"></style></defs><path d="M330.666667 768a53.333333 53.333333 0 1 1 0 106.666667 53.333333 53.333333 0 0 1 0-106.666667z m384 0a53.333333 53.333333 0 1 1 0 106.666667 53.333333 53.333333 0 0 1 0-106.666667zM149.504 160a96 96 0 0 1 92.906667 71.786667l1.024 4.394666L256.64 298.666667 796.096 298.666667a64 64 0 0 1 62.677333 76.949333l-61.653333 298.666667A64 64 0 0 1 734.442667 725.333333H332.224a64 64 0 0 1-62.677333-51.050666l-60.586667-293.418667-0.405333 0.085333-27.733334-131.562666a32 32 0 0 0-28.309333-25.237334l-2.986667-0.149333H94.741333v-64h54.741334zM682.666667 469.333333H384v64h298.666667v-64z" p-id="7526"></path></svg>