<?xml version="1.0" standalone="no"?><!DOCTYPE svg PUBLIC "-//W3C//DTD SVG 1.1//EN" "http://www.w3.org/Graphics/SVG/1.1/DTD/svg11.dtd"><svg t="1581153462316" class="icon" viewBox="0 0 1024 1024" version="1.1" xmlns="http://www.w3.org/2000/svg" p-id="6989" xmlns:xlink="http://www.w3.org/1999/xlink" width="200" height="200"><defs><style type="text/css"></style></defs><path d="M830.869333 659.861333l44.928 45.610667-174.08 171.456-105.536-104.106667 44.970667-45.568 60.586667 59.818667 129.130666-127.210667z m-172.010666-61.888l79.616 92.885334L704 725.333333l-64-64-106.666667 106.666667 106.666667 106.666667H267.157333a64 64 0 0 1-48.597333-105.642667l146.602667-171.050667A276.053333 276.053333 0 0 0 512 640a276.053333 276.053333 0 0 0 146.858667-42.026667zM512 149.333333c117.824 0 213.333333 95.509333 213.333333 213.333334s-95.509333 213.333333-213.333333 213.333333-213.333333-95.509333-213.333333-213.333333S394.176 149.333333 512 149.333333z" p-id="6990"></path></svg>