<?xml version="1.0" standalone="no"?><!DOCTYPE svg PUBLIC "-//W3C//DTD SVG 1.1//EN" "http://www.w3.org/Graphics/SVG/1.1/DTD/svg11.dtd"><svg t="1600141312135" class="icon" viewBox="0 0 1024 1024" version="1.1" xmlns="http://www.w3.org/2000/svg" p-id="683" xmlns:xlink="http://www.w3.org/1999/xlink" width="200" height="200"><defs><style type="text/css"></style></defs><path d="M213.4272 241.501867a24.2176 24.2176 0 0 1-24.209067-24.221867 24.2176 24.2176 0 0 1 24.209067-24.226133h32.277333a24.2176 24.2176 0 0 1 24.209067 24.226133 24.2176 24.2176 0 0 1-24.209067 24.221867h-32.277333z m572.936533 0a24.2176 24.2176 0 0 1-24.209066-24.221867 24.2176 24.2176 0 0 1 24.209066-24.226133h24.209067c40.110933 0 72.6272 32.5376 72.6272 72.674133v549.0688c0 40.132267-32.512 72.669867-72.6272 72.669867H213.4272C173.312 887.466667 140.8 854.929067 140.8 814.7968V265.728c0-40.136533 32.512-72.674133 72.6272-72.674133a24.2176 24.2176 0 0 1 24.209067 24.226133 24.2176 24.2176 0 0 1-24.209067 24.221867 24.2176 24.2176 0 0 0-24.209067 24.226133v549.0688a24.2176 24.2176 0 0 0 24.209067 24.221867h597.1456a24.2176 24.2176 0 0 0 24.209067-24.221867V265.728a24.2176 24.2176 0 0 0-24.209067-24.226133h-24.209067z" p-id="684" fill="#ffffff"></path><path d="M326.4 136.533333a24.209067 24.209067 0 0 1 24.209067 24.209067v100.962133a24.209067 24.209067 0 1 1-48.418134 0V160.7424A24.209067 24.209067 0 0 1 326.4 136.533333z m371.2 0a24.209067 24.209067 0 0 1 24.209067 24.209067v100.962133a24.209067 24.209067 0 1 1-48.418134 0V160.7424A24.209067 24.209067 0 0 1 697.6 136.533333z m-56.405333 80.746667a24.209067 24.209067 0 0 1-24.209067 24.209067H407.0144a24.209067 24.209067 0 1 1 0-48.418134h209.9712a24.209067 24.209067 0 0 1 24.209067 24.209067z m222.050133 185.7152a24.209067 24.209067 0 0 1-24.209067 24.209067H180.928a24.209067 24.209067 0 1 1 0-48.418134H839.04a24.209067 24.209067 0 0 1 24.209067 24.209067z m-109.009067 209.937067a24.209067 24.209067 0 0 1-24.209066 24.209066H293.973333a24.209067 24.209067 0 1 1 0-48.418133h436.053334a24.209067 24.209067 0 0 1 24.209066 24.209067z" p-id="685" fill="#ffffff"></path></svg>