<?xml version="1.0" standalone="no"?><!DOCTYPE svg PUBLIC "-//W3C//DTD SVG 1.1//EN" "http://www.w3.org/Graphics/SVG/1.1/DTD/svg11.dtd"><svg t="1595234966596" class="icon" viewBox="0 0 1024 1024" version="1.1" xmlns="http://www.w3.org/2000/svg" p-id="4319" xmlns:xlink="http://www.w3.org/1999/xlink" width="200" height="200"><defs><style type="text/css"></style></defs><path d="M896 192h-96v-64c0-17.673-14.327-32-32-32H160c-35.346 0-64 28.654-64 64v704c0 35.347 28.654 64 64 64h736c17.673 0 32-14.327 32-32V224c0-17.673-14.327-32-32-32z m-768-32c0-17.673 14.327-32 32-32h592c8.837 0 16 7.164 16 16v48H160c-17.673 0-32-14.327-32-32z m368 608H240c-8.836 0-16-7.163-16-16s7.164-16 16-16h256c8.836 0 16 7.163 16 16s-7.164 16-16 16z m128-128H240c-8.836 0-16-7.163-16-16s7.164-16 16-16h384c8.837 0 16 7.163 16 16s-7.163 16-16 16zM224 496c0-8.836 7.164-16 16-16h256c8.836 0 16 7.164 16 16s-7.164 16-16 16H240c-8.836 0-16-7.164-16-16z m560-112H240c-8.836 0-16-7.164-16-16s7.164-16 16-16h544c8.837 0 16 7.164 16 16s-7.163 16-16 16z" p-id="4320" fill="#bfcbd9"></path></svg>