<?xml version="1.0" standalone="no"?><!DOCTYPE svg PUBLIC "-//W3C//DTD SVG 1.1//EN" "http://www.w3.org/Graphics/SVG/1.1/DTD/svg11.dtd"><svg t="1582808245545" class="icon" viewBox="0 0 1024 1024" version="1.1" xmlns="http://www.w3.org/2000/svg" p-id="7073" xmlns:xlink="http://www.w3.org/1999/xlink" width="200" height="200"><defs><style type="text/css"></style></defs><path d="M810.666667 234.666667a64 64 0 0 1 64 64v426.666666a64 64 0 0 1-64 64H213.333333a64 64 0 0 1-64-64V298.666667a64 64 0 0 1 64-64h597.333334z m-42.666667 362.666666H256v64h512v-64zM469.333333 341.333333H256v192h213.333333v-192z m298.666667 128H512v64h256v-64z m-362.666667-64v64h-85.333333v-64h85.333333z" p-id="7074"></path></svg>