<?xml version="1.0" standalone="no"?><!DOCTYPE svg PUBLIC "-//W3C//DTD SVG 1.1//EN" "http://www.w3.org/Graphics/SVG/1.1/DTD/svg11.dtd"><svg t="1581574571091" class="icon" viewBox="0 0 1024 1024" version="1.1" xmlns="http://www.w3.org/2000/svg" p-id="6207" xmlns:xlink="http://www.w3.org/1999/xlink" width="200" height="200"><defs><style type="text/css"></style></defs><path d="M689.130667 192c26.88 0 49.898667 16.576 59.370666 40.064H789.333333a64 64 0 0 1 64 64v96.341333a160.384 160.384 0 0 1-115.989333 154.112A230.677333 230.677333 0 0 1 554.666667 690.794667L554.666667 721.130667h58.176l4.821333 0.106666c57.536 2.432 104.170667 48.32 107.221333 106.965334l0.981334 37.098666h-405.546667v-32a112.170667 112.170667 0 0 1 112.170667-112.170666H490.666667v-30.314667a230.741333 230.741333 0 0 1-182.698667-144.298667A160.384 160.384 0 0 1 192 392.405333v-96.32a64 64 0 0 1 64-64l40.832-0.021333A64.021333 64.021333 0 0 1 356.202667 192h332.928z m-396.949334 104.064H256v96.341333c0 30.485333 14.144 57.642667 36.245333 75.306667l-0.042666-5.162667-0.021334-166.485333z m460.949334 166.485333l-0.042667 5.141334A96.149333 96.149333 0 0 0 789.333333 392.384V296.106667l-36.202666-0.021334v166.485334z" p-id="6208"></path></svg>