<?xml version="1.0" standalone="no"?><!DOCTYPE svg PUBLIC "-//W3C//DTD SVG 1.1//EN" "http://www.w3.org/Graphics/SVG/1.1/DTD/svg11.dtd"><svg t="1581152736855" class="icon" viewBox="0 0 1024 1024" version="1.1" xmlns="http://www.w3.org/2000/svg" p-id="6185" xmlns:xlink="http://www.w3.org/1999/xlink" width="200" height="200"><defs><style type="text/css"></style></defs><path d="M522.666667 106.666667a181.333333 181.333333 0 0 1 181.333333 181.333333v10.666667h-64v-10.666667a117.333333 117.333333 0 0 0-234.666667 0V341.333333h384a64 64 0 0 1 64 64v384a64 64 0 0 1-64 64H234.666667a64 64 0 0 1-64-64V405.333333a64 64 0 0 1 64-64h106.666666v-53.333333A181.333333 181.333333 0 0 1 522.666667 106.666667zM554.666667 512h-64v170.666667h64v-170.666667z" p-id="6186"></path></svg>