<?xml version="1.0" standalone="no"?><!DOCTYPE svg PUBLIC "-//W3C//DTD SVG 1.1//EN" "http://www.w3.org/Graphics/SVG/1.1/DTD/svg11.dtd"><svg t="1582808689989" class="icon" viewBox="0 0 1024 1024" version="1.1" xmlns="http://www.w3.org/2000/svg" p-id="7207" xmlns:xlink="http://www.w3.org/1999/xlink" width="200" height="200"><defs><style type="text/css"></style></defs><path d="M512 128c212.074667 0 384 171.925333 384 384s-171.925333 384-384 384S128 724.074667 128 512 299.925333 128 512 128z m17.386667 210.197333l-92.8 97.706667-93.461334-1.557333a42.666667 42.666667 0 0 0-42.666666 42.666666v85.013334a42.666667 42.666667 0 0 0 42.666666 42.666666h91.349334l94.912 86.698667c5.632 5.952 15.722667 1.984 15.722666-5.930667v-341.333333c0-7.893333-10.090667-11.861333-15.722666-5.930667z m117.973333 11.52l-29.504 56.832A129.28 129.28 0 0 1 682.666667 518.677333a129.237333 129.237333 0 0 1-60.330667 109.397334l-4.416 2.666666 29.589333 56.810667A193.28 193.28 0 0 0 746.666667 518.677333a193.28 193.28 0 0 0-99.306667-168.96z m-39.744 76.586667l-29.653333 57.173333c10.154667 7.786667 16.704 20.053333 16.704 33.856 0 13.056-5.866667 24.746667-15.125334 32.576l-2.602666 2.048 29.674666 57.024a106.602667 106.602667 0 0 0 52.053334-91.648 106.602667 106.602667 0 0 0-51.050667-91.029333z" p-id="7208"></path></svg>