<?xml version="1.0" standalone="no"?><!DOCTYPE svg PUBLIC "-//W3C//DTD SVG 1.1//EN" "http://www.w3.org/Graphics/SVG/1.1/DTD/svg11.dtd"><svg t="1595475439659" class="icon" viewBox="0 0 1024 1024" version="1.1" xmlns="http://www.w3.org/2000/svg" p-id="2353" xmlns:xlink="http://www.w3.org/1999/xlink" width="200" height="200"><defs><style type="text/css"></style></defs><path d="M746.666667 256c117.824 0 213.333333 95.509333 213.333333 213.333333v277.333334c0 117.824-95.509333 213.333333-213.333333 213.333333H277.333333C159.509333 960 64 864.490667 64 746.666667V469.333333c0-117.824 95.509333-213.333333 213.333333-213.333333h469.333334z m0 64H277.333333a149.333333 149.333333 0 0 0-149.333333 149.333333v277.333334a149.333333 149.333333 0 0 0 149.333333 149.333333h469.333334a149.333333 149.333333 0 0 0 149.333333-149.333333V469.333333a149.333333 149.333333 0 0 0-149.333333-149.333333z" fill="#ffffff" p-id="2354"></path><path d="M469.333333 422.378667a96 96 0 0 1 49.386667 13.653333l136.362667 81.834667a96 96 0 0 1 3.84 162.197333l-136.32 90.88a96 96 0 0 1-149.269334-79.872V518.4a96 96 0 0 1 96-96z m0 64a32 32 0 0 0-32 32v172.693333a32 32 0 0 0 49.749334 26.645333l136.362666-90.901333a32 32 0 0 0-1.28-54.08l-136.362666-81.813333A32 32 0 0 0 469.333333 486.4zM407.850667 77.610667L128.512 317.013333a32 32 0 0 0 41.642667 48.597334L449.493333 126.208a32 32 0 1 0-41.642666-48.597333z" fill="#ffffff" p-id="2355"></path></svg>