<?xml version="1.0" encoding="UTF-8"?>
<svg width="34px" height="34px" viewBox="0 0 34 34" version="1.1" xmlns="http://www.w3.org/2000/svg" xmlns:xlink="http://www.w3.org/1999/xlink">
    <title>Fill 1</title>
    <defs>
        <polygon id="path-1" points="0.00219512195 0.0292682927 29.9706951 0.0292682927 29.9706951 29.9999634 0.00219512195 29.9999634"></polygon>
    </defs>
    <g id="页面" stroke="none" stroke-width="1" fill="none" fill-rule="evenodd">
        <g id="评卷台（竖版作品）" transform="translate(-21.000000, -8.000000)">
            <g id="fanhui-(2)" transform="translate(21.000000, 8.000000)">
                <g id="编组" transform="translate(2.000000, 2.000000)">
                    <mask id="mask-2" fill="white">
                        <use xlink:href="#path-1"></use>
                    </mask>
                    <g id="Clip-2"></g>
                    <path d="M0,15.0147073 C0,23.2865488 6.71341463,29.9999634 14.985439,29.9999634 C23.2572805,29.9999634 29.9706951,23.2865488 29.9706951,15.0147073 C29.9706951,6.74268293 23.2572805,0.0292682927 14.985439,0.0292682927 C6.71341463,0.0292682927 0,6.74268293 0,15.0147073 Z" id="Fill-1" fill="#F3F3F3" mask="url(#mask-2)"></path>
                </g>
                <path d="M23.7198974,23.8204556 C23.7198974,23.8204556 23.5720518,24.2244305 23.37956,23.8204556 C23.37956,23.8204556 21.1898342,16.8897525 15.8487903,18.6302058 L15.8487903,20.7902269 C15.8487903,20.7902269 15.7600396,22.0488923 14.7095521,21.2253497 L9.47192423,16.4700709 C9.47192423,16.4700709 8.36230568,15.8329607 9.54600958,14.9627151 L14.8427684,10.176478 C14.8427684,10.176478 15.6416692,9.58607076 15.8339805,10.5650496 L15.8339805,12.8959481 C15.8339805,12.8803931 25.776443,13.393291 23.7198974,23.8204556 Z" id="Fill-3" fill="#0E0E0E"></path>
            </g>
        </g>
    </g>
</svg>