<?xml version="1.0" encoding="UTF-8"?>
<svg width="100px" height="14px" viewBox="0 0 100 14" version="1.1" xmlns="http://www.w3.org/2000/svg" xmlns:xlink="http://www.w3.org/1999/xlink">
    <title>画板备份</title>
    <g id="画板备份" stroke="none" stroke-width="1" fill="none" fill-rule="evenodd">
        <g id="编组-3" transform="translate(2.556056, 1.000000)" fill="#2C3AFF">
            <g id="编组" transform="translate(0.000000, 0.000000)">
                <polygon id="Fill-17" points="8.35256596 3.22026639 3.72343302 11.2373879 12.9816989 11.2373879"></polygon>
                <polygon id="Fill-18" points="0.677787583 10.8464927 6.4951259 0.781790449 7.8917525 3.19832337 8.11775487 2.8073185 6.4951259 0 0 11.2373879 3.24547745 11.2373879 3.47137006 10.8464927"></polygon>
                <polygon id="Fill-19" points="2.0513968 10.0413427 6.46060812 2.39220007 7.38915702 4.00316352 7.61458824 3.61218492 6.46060812 1.6101332 1.37532211 10.4323213 3.6836108 10.4323213 3.90904202 10.0413427"></polygon>
                <polygon id="Fill-20" points="3.46229085 9.2360268 6.48690117 4.00261256 6.95251304 4.80810766 7.1785105 4.41687972 6.48690117 3.22026639 2.78418865 9.62725474 4.16751713 9.62725474 4.39351459 9.2360268"></polygon>
                <polygon id="Fill-21" points="6.48456251 4.83039959 4.1930552 8.82218814 4.64192515 8.82218814 6.70888832 5.22126702"></polygon>
            </g>
            <g id="编组-2" transform="translate(13.733267, 1.775896)" fill-rule="nonzero">
                <path d="M4.10091868,8.60946271 L4.10091868,1.4357759 L6.83486447,1.4357759 L6.83486447,0.267422997 L-2.30601296e-15,0.267422997 L-2.30601296e-15,1.4357759 L2.73394579,1.4357759 L2.73394579,8.60946271 L4.10091868,8.60946271 Z M11.5316431,8.77303212 C12.8051478,8.77303212 13.8099313,8.3641086 14.5459936,7.54626157 C15.2470054,6.76346513 15.5975112,5.73531457 15.5975112,4.45012638 C15.5975112,3.16493819 15.2470054,2.12510411 14.5459936,1.34230767 C13.8099313,0.512777107 12.8051478,0.103853591 11.5316431,0.103853591 C10.2464549,0.103853591 9.24167145,0.512777107 8.51729265,1.3539912 C7.81628091,2.14847117 7.47745857,3.17662172 7.47745857,4.45012638 C7.47745857,5.71194752 7.81628091,6.74009807 8.51729265,7.53457804 C9.24167145,8.35242507 10.2464549,8.77303212 11.5316431,8.77303212 Z M11.5316431,7.56962863 C10.667062,7.56962863 9.9894173,7.2775404 9.52207614,6.70504748 C9.06641851,6.14423809 8.84443146,5.39649223 8.84443146,4.45012638 C8.84443146,3.492077 9.06641851,2.74433115 9.52207614,2.18352175 C10.0011008,1.5993453 10.667062,1.30725708 11.5316431,1.30725708 C12.3962243,1.30725708 13.0621854,1.57597825 13.5295266,2.13678764 C13.9851842,2.69759703 14.2188548,3.46870995 14.2188548,4.45012638 C14.2188548,5.43154282 13.9851842,6.19097221 13.5295266,6.74009807 C13.0621854,7.28922393 12.3962243,7.56962863 11.5316431,7.56962863 Z M18.2496723,8.60946271 L18.2496723,5.40817576 L20.3176569,5.40817576 C22.350591,5.40817576 23.367058,4.54359461 23.367058,2.82611585 C23.367058,1.12032062 22.350591,0.267422997 20.341024,0.267422997 L16.8826994,0.267422997 L16.8826994,8.60946271 L18.2496723,8.60946271 Z M20.2358722,4.23982286 L18.2496723,4.23982286 L18.2496723,1.4357759 L20.2358722,1.4357759 C20.8317322,1.4357759 21.2757063,1.54092766 21.556111,1.76291471 C21.8365157,1.97321823 21.9884016,2.3237241 21.9884016,2.82611585 C21.9884016,3.3285076 21.8481992,3.690697 21.5677946,3.91268405 C21.2873899,4.12298757 20.8434158,4.23982286 20.2358722,4.23982286 Z" id="TOP"></path>
                <path d="M33.4687735,4.90723185 L33.4687735,3.99425848 L29.7788394,3.99425848 L29.7788394,3.33805887 L32.6509015,3.33805887 L32.6509015,2.48214634 L29.7788394,2.48214634 L29.7788394,1.83545687 L33.1549389,1.83545687 L33.1549389,0.941503785 L31.2338908,0.941503785 C31.3670327,0.694240164 31.4811544,0.427956266 31.5572355,0.142652089 L30.4920999,-7.55219245e-14 C30.4160188,0.323344734 30.3114072,0.637179329 30.1782653,0.941503785 L28.4093794,0.941503785 C28.2952577,0.608648911 28.1716259,0.304324456 28.0479941,0.0285304177 L26.9923687,0.199712924 C27.1350207,0.427956266 27.2681627,0.675219886 27.3822844,0.941503785 L25.3946653,0.941503785 L25.3946653,1.83545687 L28.7707647,1.83545687 L28.7707647,2.48214634 L25.9272331,2.48214634 L25.9272331,3.33805887 L28.7707647,3.33805887 L28.7707647,3.99425848 L25.0808307,3.99425848 L25.0808307,4.90723185 L33.4687735,4.90723185 Z M25.2520132,8.94904102 C26.8306963,8.62569629 27.9433826,8.18822988 28.5710518,7.63664181 C28.8373357,7.39888833 29.0750891,7.12309429 29.2652919,6.80925969 C29.9024713,7.82684459 31.2243806,8.5305949 33.23102,8.92051061 L33.7540777,7.97900682 C32.0327424,7.7317432 30.843975,7.25623624 30.1972856,6.57150621 L33.2595504,6.57150621 L33.2595504,5.63951257 L29.750309,5.63951257 C29.7883496,5.48735034 29.81688,5.32567797 29.8454104,5.16400561 L28.8373357,5.06890421 C28.7992951,5.259107 28.7612546,5.44930978 28.7041937,5.63951257 L25.2995639,5.63951257 L25.2995639,6.57150621 L28.1811361,6.57150621 C28.0575042,6.70464816 27.9148522,6.83779011 27.7531798,6.97093206 C27.1635512,7.40839847 26.193517,7.74125334 24.8430772,7.97900682 L25.2520132,8.94904102 Z M39.2794685,8.86344977 L39.2794685,3.31903859 C39.9071377,4.9928231 40.9817835,6.50493524 42.4843855,7.87439529 L43.1596054,7.0279929 C41.7425946,5.88677619 40.74403,4.60290739 40.1544014,3.16687637 L42.8743012,3.16687637 L42.8743012,2.22537258 L39.2794685,2.22537258 L39.2794685,0.0475506962 L38.2904141,0.0475506962 L38.2904141,2.22537258 L34.7050916,2.22537258 L34.7050916,3.16687637 L37.4154813,3.16687637 C36.7687918,4.7265392 35.7512069,6.00089786 34.3722367,7.00897262 L34.9238248,7.89341557 C36.4739775,6.69513802 37.5961739,5.17351575 38.2904141,3.32854873 L38.2904141,8.86344977 L39.2794685,8.86344977 Z M41.2670876,2.08272049 L42.0564292,1.52162228 C41.771125,1.10317615 41.362189,0.61815905 40.8296212,0.0570608354 L40.0497898,0.542077937 C40.5633373,1.11268629 40.9627632,1.62623381 41.2670876,2.08272049 Z M49.7120913,8.73981796 C50.3968213,8.73981796 50.8628181,8.60667601 51.1005716,8.34990225 C51.3383251,8.08361835 51.4904873,7.2467261 51.5665684,5.82971535 L47.0397422,5.82971535 L47.2774956,5.12596505 L52.0040348,5.12596505 L52.0040348,4.2415221 L48.323611,4.2415221 C48.7040165,4.01327876 49.0654018,3.76601514 49.417277,3.51875152 L52.5175824,3.51875152 L52.5175824,2.57724773 L50.5680038,2.57724773 C51.1576325,2.0351698 51.6902003,1.43603102 52.1657072,0.789341557 L51.4334265,0.24726362 C51.1481223,0.62766919 50.8247776,1.00807476 50.4633923,1.37897019 L50.4633923,0.922483506 L48.3806718,0.922483506 L48.3806718,0.0570608354 L47.3916173,0.0570608354 L47.3916173,0.922483506 L44.9475115,0.922483506 L44.9475115,1.83545687 L47.3916173,1.83545687 L47.3916173,2.57724773 L44.2437612,2.57724773 L44.2437612,3.51875152 L47.6769215,3.51875152 C46.5547251,4.16544099 45.2803664,4.69800878 43.8538455,5.11645491 L44.2627815,6.010408 C44.9570217,5.80118494 45.6227314,5.55392131 46.2599107,5.28763742 L45.8604849,6.69513802 L50.577514,6.69513802 C50.5299633,7.20868554 50.4538822,7.53203028 50.3587808,7.67468236 C50.2446591,7.80782431 49.9498448,7.87439529 49.4933581,7.87439529 C49.1129525,7.87439529 48.6754861,7.84586487 48.1999792,7.79831418 L48.5138137,8.66373685 C48.8656889,8.71128754 49.2651147,8.73981796 49.7120913,8.73981796 Z M49.0939322,2.57724773 L48.3806718,2.57724773 L48.3806718,1.83545687 L49.9878853,1.83545687 C49.7120913,2.08272049 49.417277,2.32998411 49.0939322,2.57724773 Z M61.2193598,1.64525409 L61.9040898,1.16974713 C61.6853566,0.846402392 61.3810321,0.465996823 60.9911164,0.0285304177 L60.3158965,0.456486683 C60.6963021,0.893953088 60.9911164,1.2838688 61.2193598,1.64525409 Z M61.1242584,8.81589907 C61.5807451,8.81589907 61.989681,8.11214877 62.3320461,6.72366844 L61.5522146,6.09599925 C61.4000524,7.16113485 61.2574003,7.70321278 61.1242584,7.7317432 C60.8865049,7.67468236 60.6772818,7.10407401 60.487079,6.01991814 C60.3634472,5.15449547 60.277856,4.03229904 60.2398154,2.64381871 L61.9991912,2.64381871 L61.9991912,1.67378451 L60.2207951,1.67378451 C60.2017749,1.16023699 60.2017749,0.61815905 60.2017749,0.038040557 L59.2317407,0.038040557 C59.2317407,0.599138772 59.2317407,1.14121671 59.2507609,1.67378451 L56.3691888,1.67378451 L56.3691888,2.64381871 L59.2792914,2.64381871 C59.3173319,3.84209625 59.393413,4.85968115 59.5075347,5.68706326 C59.6406767,6.65709747 59.86892,7.44643902 60.1827546,8.05508793 C60.4490385,8.55912531 60.7628731,8.81589907 61.1242584,8.81589907 Z M55.5227864,2.21586244 L56.1980063,1.52162228 C55.7985804,1.06513559 55.3135633,0.599138772 54.7429549,0.133141949 L54.0392046,0.817871974 C54.676384,1.31239921 55.1709112,1.77839604 55.5227864,2.21586244 Z M54.7619752,8.61618615 C55.361114,8.16920961 55.9317224,7.66517223 56.4642902,7.09456387 L56.2075164,6.04844856 C55.9887832,6.2766919 55.7795601,6.4954251 55.5893573,6.70464816 L55.5893573,2.88157219 L53.3925152,2.88157219 L53.3925152,3.83258611 L54.6383434,3.83258611 L54.6383434,7.22770582 C54.6383434,7.41790861 54.5527522,7.58909111 54.3815697,7.72223306 L54.7619752,8.61618615 Z M56.7876349,8.25480086 C57.7196285,8.09312849 58.6040715,7.89341557 59.4314536,7.66517223 L59.4314536,6.74268872 C59.0700683,6.83779011 58.708683,6.9328915 58.3377876,7.00897262 L58.3377876,4.76457976 L59.1271291,4.76457976 L59.1271291,3.84209625 L56.587922,3.84209625 L56.587922,4.76457976 L57.3677534,4.76457976 L57.3677534,7.18966526 L56.5403713,7.30378693 L56.7876349,8.25480086 Z M66.9920143,8.84442949 C67.6101733,8.84442949 67.9240079,8.52108476 67.9240079,7.88390543 L67.9240079,5.54441118 C68.6467785,5.48735034 69.3124883,5.4302895 69.9211372,5.36371853 C70.1303602,5.67755313 70.3300732,5.98187758 70.5012557,6.28620204 L71.2905972,5.7441241 C70.8721511,5.04988394 70.2635022,4.2415221 69.4741606,3.31903859 L68.7418799,3.77552528 C68.951103,4.04180918 69.160326,4.30809307 69.360039,4.57437697 C68.4280453,4.68849864 67.3343793,4.78360004 66.0980612,4.86919129 C67.1822171,4.2415221 68.4660859,3.29050818 69.9401575,2.02565966 L69.0271841,1.57868311 C68.608738,1.95908868 68.2093121,2.31096383 67.8193964,2.63430857 C67.1917272,2.68185927 66.5545479,2.72940996 65.9268787,2.76745052 C66.4309161,2.40606523 66.9159332,1.94957854 67.3724199,1.41701075 C68.7609002,1.32190935 69.9591777,1.16974713 70.9767626,0.960524063 L70.4917455,0.133141949 C68.5897177,0.485017101 66.2787538,0.665709747 63.558854,0.665709747 L63.8441582,1.52162228 C64.6430099,1.52162228 65.403821,1.502602 66.1456119,1.48358172 C65.6510847,2.0351698 65.2421487,2.38704495 64.9092938,2.54871732 C64.7000707,2.64381871 64.4813375,2.70087954 64.243584,2.72940996 L64.443297,3.59483263 C65.2611689,3.54728194 66.0505105,3.49973124 66.7923014,3.4426704 C65.9934497,4.0227889 65.2611689,4.45074516 64.6049693,4.73604934 C64.3481956,4.83115073 64.0628914,4.88821157 63.7490568,4.91674199 L64.0248508,5.78216466 C65.0709662,5.73461396 66.0314902,5.67755313 66.9254433,5.62049229 L66.9254433,7.63664181 C66.9254433,7.83635473 66.8303419,7.94096626 66.6496493,7.94096626 C66.3358147,7.94096626 66.0124699,7.91243585 65.6796151,7.87439529 L65.9078584,8.84442949 L66.9920143,8.84442949 Z M70.8531308,8.68275712 L71.5568811,7.97900682 C70.9197018,7.30378693 70.1303602,6.62856705 69.1983666,5.94383702 L68.542167,6.58101635 C69.5407316,7.33231735 70.3110529,8.03606766 70.8531308,8.68275712 Z M63.6444453,8.64471657 C64.5954592,8.07410821 65.3848008,7.39888833 66.0219801,6.62856705 L65.3277399,6.010408 C64.7000707,6.70464816 63.9392596,7.31329707 63.0262862,7.83635473 L63.6444453,8.64471657 Z M80.1635571,4.61241753 L80.9338784,4.07033959 C80.6010235,3.47120082 80.1255166,2.76745052 79.5073575,1.95908868 L78.7465464,2.43459564 L79.2600939,3.14785609 C78.5563436,3.26197776 77.8430832,3.35707915 77.1203126,3.42365013 C77.3865965,3.06226483 77.6909209,2.56773759 78.0332859,1.92104813 L80.9243683,1.92104813 L80.9243683,0.979544342 L78.8606681,0.979544342 C78.7465464,0.61815905 78.6324247,0.285304177 78.518303,-7.55219245e-14 L77.5102283,0.171182506 C77.6433702,0.418446126 77.7574919,0.694240164 77.8621034,0.979544342 L75.57967,0.979544342 L75.57967,1.92104813 L76.9966808,1.92104813 C76.5687245,2.72940996 76.2168493,3.23344734 75.9505654,3.4426704 C75.9125249,3.46169068 75.8459539,3.4902211 75.7603627,3.51875152 L75.9695857,4.39368433 C77.3485559,4.2890728 78.6229146,4.14642071 79.7926617,3.9752382 C79.9258037,4.18446126 80.0494355,4.40319447 80.1635571,4.61241753 Z M72.7551587,6.60954677 C73.6776422,6.46689468 74.6571865,6.1815905 75.7033018,5.7441241 L75.7033018,4.83115073 C75.1231833,5.08792449 74.552575,5.29714756 73.9914768,5.44930978 C74.486004,4.7740899 75.1041631,3.73748472 75.8459539,2.33949425 L74.961511,1.99712924 C74.7808183,2.34900439 74.6096358,2.68185927 74.4574736,2.98618372 C74.1721694,3.03373442 73.8868652,3.07177497 73.6015611,3.10030539 C74.0580477,2.39655509 74.5050243,1.502602 74.9424907,0.399425848 L73.9914768,0.0285304177 C73.668132,1.03660518 73.2877265,1.95908868 72.8502601,2.79598094 C72.7171181,2.98618372 72.574466,3.10981553 72.4223038,3.17638651 L72.6695674,4.08935987 C73.1070338,4.0227889 73.5445002,3.95621792 73.9629463,3.89915709 C73.5445002,4.62192767 73.2021352,5.12596505 72.9358513,5.41126923 C72.8217296,5.5253909 72.6695674,5.62049229 72.4888748,5.6965734 L72.7551587,6.60954677 Z M80.1635571,8.7017774 C80.6200438,8.66373685 80.9243683,8.55912531 81.0575102,8.36892253 C81.1906522,8.15969947 81.2667333,7.60811139 81.2667333,6.69513802 L80.4203309,6.39081357 C80.4203309,6.82827997 80.4013106,7.18015512 80.3822903,7.43692888 C80.3632701,7.67468236 80.2776788,7.80782431 80.1160064,7.82684459 L79.6119691,7.82684459 C79.5073575,7.79831418 79.4598068,7.71272292 79.4598068,7.57007083 L79.4598068,4.52682628 L78.518303,4.52682628 L78.518303,7.76978376 C78.518303,8.38794281 78.8701782,8.7017774 79.5834386,8.7017774 L80.1635571,8.7017774 Z M75.7888931,8.86344977 C76.4355826,8.42598336 76.8920692,7.90292571 77.1678633,7.30378693 C77.4151269,6.74268872 77.557779,5.85824577 77.6148398,4.64094795 L76.6448056,4.64094795 C76.6067651,5.67755313 76.4831332,6.41934399 76.2739102,6.86632053 C76.055177,7.32280721 75.6842816,7.72223306 75.1517138,8.06459807 L75.7888931,8.86344977 Z M72.7551587,8.50206448 C73.8583348,8.23578058 74.8378792,7.87439529 75.7033018,7.43692888 L75.7033018,6.4954251 C74.828369,6.91387123 73.801274,7.25623624 72.6315269,7.51301 L72.7551587,8.50206448 Z" id="美术考试系统"></path>
            </g>
        </g>
    </g>
</svg>