<?xml version="1.0" encoding="UTF-8"?>
<svg width="334px" height="334px" viewBox="0 0 334 334" version="1.1" xmlns="http://www.w3.org/2000/svg" xmlns:xlink="http://www.w3.org/1999/xlink">
    <title>画板</title>
    <g id="画板" stroke="none" stroke-width="1" fill="none" fill-rule="evenodd" opacity="0.128724564">
        <g id="编组-2" transform="translate(17.280000, 13.000000)" fill="#2C3AFF">
            <g id="编组" transform="translate(3.276056, 0.000000)">
                <polygon id="Fill-17" points="185.986757 71.7057376 82.9097591 250.223147 289.063755 250.223147"></polygon>
                <polygon id="Fill-18" points="15.09231 241.519075 144.627101 17.4081439 175.725814 71.2171318 180.758213 62.5106183 144.627101 0 0 250.223147 72.2671127 250.223147 77.297068 241.519075"></polygon>
                <polygon id="Fill-19" points="45.6784944 223.590784 143.858493 53.2671679 164.53451 89.1385239 169.554192 80.4325954 143.858493 35.8528688 30.6243254 232.296712 82.023037 232.296712 87.0427186 223.590784"></polygon>
                <polygon id="Fill-20" points="77.094901 205.658797 144.443961 89.1262557 154.81175 107.062232 159.84404 98.3507511 144.443961 71.7057376 61.9955856 214.370278 92.7981891 214.370278 97.8304791 205.658797"></polygon>
                <polygon id="Fill-21" points="144.391886 107.558606 93.3668458 196.443844 103.361842 196.443844 149.386953 116.262059"></polygon>
            </g>
            <path d="M37.4337562,306.696644 C39.5535571,306.696644 41.1434077,306.118516 42.1551309,305.058616 C43.3113859,303.709652 44.0340453,300.096355 44.4194636,294.170548 L41.1434077,293.110647 C40.9025213,298.121086 40.4207484,301.108078 39.698089,302.119801 C39.1199615,302.938815 38.1564156,303.37241 36.8074514,303.37241 L33.1941545,303.37241 C31.5561265,303.37241 30.7371126,302.553396 30.7371126,300.915369 L30.7371126,284.053316 C35.8920829,281.885338 40.4207484,279.235587 44.323109,276.104063 L42.2996628,273.261603 C38.8308977,276.248595 34.9767143,278.705637 30.7371126,280.632728 L30.7371126,264.734222 L27.2201702,264.734222 L27.2201702,301.638028 C27.2201702,305.010438 28.8100209,306.696644 32.0860768,306.696644 L37.4337562,306.696644 Z M0.481772924,306.600289 C9.5391039,305.15497 17.632889,303.276056 24.7631283,300.915369 L24.7631283,297.398426 C22.3542637,298.169263 19.8490445,298.9401 17.1992934,299.614582 L17.1992934,283.041593 L24.6185964,283.041593 L24.6185964,279.669183 L17.1992934,279.669183 L17.1992934,265.553236 L13.7787056,265.553236 L13.7787056,300.481773 C11.8516139,300.915369 9.82816766,301.348964 7.70836679,301.78256 L7.70836679,273.647021 L4.28777903,273.647021 L4.28777903,302.408865 C2.89063755,302.601574 1.44531877,302.84246 -6.84640503e-14,303.083347 L0.481772924,306.600289 Z M66.72555,307.852899 C70.7724426,305.444034 74.2412076,302.360687 77.2281998,298.602859 C78.3362775,300.144532 79.5407098,301.445319 80.889674,302.457042 C85.3219849,305.733098 92.5004015,307.419303 102.424924,307.419303 L107.724426,307.419303 L108.398908,303.806006 C105.797334,303.950538 103.292115,304.046893 100.786896,304.046893 C92.6449334,303.950538 86.6709491,302.601574 82.9131203,299.951823 C81.5641561,298.988277 80.3597238,297.639313 79.2034688,295.856753 C82.864943,290.171832 85.3219849,283.08977 86.6227718,274.658744 L86.6227718,271.575397 L75.8310583,271.575397 C76.4091858,269.359242 76.8909587,267.094909 77.3245544,264.686045 L73.9039666,264.107917 C72.2659387,273.791553 69.1825919,281.49992 64.5575719,287.233018 L66.9182592,290.171832 C68.363578,288.389273 69.7607194,286.365826 71.0133291,284.101493 C72.2177614,288.485627 73.6149028,292.195279 75.2047535,295.230448 C72.4586478,299.036454 68.9898828,302.167978 64.8466356,304.576843 L66.72555,307.852899 Z M96.5954713,300.289064 L96.5954713,280.24731 C99.341577,282.463466 102.66581,285.59499 106.568171,289.545528 L108.639794,286.462181 C104.544725,282.752529 100.546009,279.476473 96.5954713,276.634013 L96.5954713,264.396981 L93.078529,264.396981 L93.078529,300.289064 L96.5954713,300.289064 Z M77.1800225,292.195279 C75.6383491,288.9674 74.2893849,284.87233 73.0367753,279.910069 C73.6630801,278.368396 74.2893849,276.68219 74.8675124,274.899631 L83.202184,274.899631 C82.045929,281.548097 80.0224827,287.329372 77.1800225,292.195279 Z M130.60864,308.19014 C137.305283,305.299502 142.123013,301.204432 145.110005,296.001285 C146.748033,292.917938 147.952465,289.304641 148.723302,285.113217 L152.625662,285.113217 L152.625662,302.649751 C152.625662,305.925807 154.167336,307.563835 157.347037,307.563835 L165.151758,307.563835 C167.175205,307.563835 168.620524,307.130239 169.535892,306.263048 C170.595793,305.203148 171.318452,302.360687 171.70387,297.639313 L168.427814,296.579412 C168.186928,300.337241 167.753332,302.553396 167.07885,303.324233 C166.5489,303.950538 165.681709,304.287779 164.525454,304.287779 L158.406938,304.287779 C156.865264,304.287779 156.094427,303.468765 156.094427,301.927092 L156.094427,285.113217 L171.029388,285.113217 L171.029388,281.788983 L149.253252,281.788983 C149.590493,279.18741 149.783202,276.344949 149.879557,273.357957 L149.879557,270.130079 L167.127027,270.130079 L167.127027,266.757668 L132.535731,266.757668 L132.535731,270.130079 L146.362614,270.130079 L146.362614,273.357957 C146.314437,276.344949 146.121728,279.18741 145.73631,281.788983 L129.307853,281.788983 L129.307853,285.113217 L145.158182,285.113217 C144.531877,288.148386 143.664686,290.894492 142.508431,293.303356 C139.906857,298.21744 135.330014,302.119801 128.681548,305.106793 L130.60864,308.19014 Z M231.973663,271.719929 L234.382528,270.033724 C233.226273,268.299342 231.636422,266.275895 229.564798,263.963385 L227.107757,265.456881 C229.131203,267.769391 230.769231,269.841015 231.973663,271.719929 Z M230.865585,307.612012 C233.081741,307.612012 234.960655,304.143247 236.550506,297.205717 L233.8044,294.989562 C232.840854,300.722659 231.829131,303.661474 230.865585,303.854183 C229.420267,303.661474 228.167657,300.867191 227.107757,295.37498 C226.33692,290.846314 225.80697,284.486912 225.566083,276.200418 L235.105187,276.200418 L235.105187,272.828007 L225.517906,272.828007 C225.421551,270.081901 225.421551,267.143087 225.421551,264.011563 L222.049141,264.011563 C222.049141,267.094909 222.049141,270.033724 222.145495,272.828007 L206.969648,272.828007 L206.969648,276.200418 L222.24185,276.200418 C222.434559,282.511643 222.7718,287.811145 223.30175,292.050747 C223.976233,297.061185 225.036133,300.963546 226.481452,303.854183 C227.734061,306.359403 229.227557,307.612012 230.865585,307.612012 Z M203.163642,274.466035 L205.52433,272.05717 C203.404529,269.551951 200.851132,267.094909 197.767785,264.637867 L195.358921,266.998555 C198.634977,269.600128 201.236551,272.105348 203.163642,274.466035 Z M199.020395,306.600289 C202.007387,304.384134 204.80167,301.830737 207.451421,298.9401 L206.536053,295.278625 C204.994379,296.964831 203.549061,298.506504 202.103742,299.903645 L202.103742,278.898346 L191.98651,278.898346 L191.98651,282.222579 L198.731331,282.222579 L198.731331,301.541673 C198.731331,302.264333 198.345913,302.938815 197.671431,303.516942 L199.020395,306.600289 Z M208.752208,304.721375 C213.569937,303.902361 218.098603,302.890638 222.290027,301.686205 L222.290027,298.458327 C220.266581,299.036454 218.14678,299.566404 216.026979,300.048177 L216.026979,286.992131 L220.555645,286.992131 L220.555645,283.764252 L208.077726,283.764252 L208.077726,286.992131 L212.606392,286.992131 L212.606392,300.722659 C211.064718,301.011723 209.474868,301.25261 207.885017,301.445319 L208.752208,304.721375 Z M288.678336,307.660189 C291.231733,307.660189 292.966115,307.274771 293.929661,306.600289 C294.941384,305.733098 295.615866,303.37241 296.001285,299.614582 L292.628874,298.506504 C292.339811,300.915369 291.954392,302.553396 291.472619,303.420588 C290.990846,304.09507 289.738237,304.480488 287.71479,304.480488 L272.24988,304.480488 C270.756383,304.480488 270.033724,303.902361 270.033724,302.84246 L270.033724,291.954392 L285.498635,291.954392 L285.498635,295.567689 C285.498635,296.579412 284.824153,297.109362 283.571543,297.109362 C281.548097,297.109362 279.380119,297.013008 276.971254,296.868476 L277.742091,299.903645 C280.054601,300 282.415288,300.048177 284.87233,300.048177 C287.522081,299.951823 288.871045,298.74739 288.919223,296.531235 L288.919223,289.979123 C291.328087,292.002569 294.266902,293.929661 297.735667,295.760398 L300,292.917938 C294.074193,290.316364 289.786414,287.425727 287.18484,284.149671 L298.554681,284.149671 L298.554681,280.969969 L275.09234,280.969969 C276.007708,279.428296 276.826722,277.790268 277.597559,276.055886 L295.90493,276.055886 L295.90493,272.876184 L278.801991,272.876184 C279.669183,270.274611 280.391842,267.480328 280.873615,264.493335 L277.453027,264.05974 C276.971254,267.191264 276.248595,270.130079 275.285049,272.876184 L259.96467,272.876184 L259.96467,276.055886 L273.984262,276.055886 C273.165248,277.790268 272.201702,279.428296 271.141802,280.969969 L257.218564,280.969969 L257.218564,284.149671 L268.68476,284.149671 C265.312349,287.9075 261.072748,290.942669 255.8696,293.207002 L257.844869,296.242171 C261.02457,294.700498 263.915208,292.917938 266.516782,290.798137 L266.516782,303.950538 C266.516782,306.40758 267.962101,307.660189 270.852738,307.660189 L288.678336,307.660189 Z M267.335796,272.538943 L270.274611,271.238156 C269.21471,268.973824 267.913923,266.854023 266.468604,264.830577 L263.33708,265.890477 C264.782399,267.817569 266.131363,270.033724 267.335796,272.538943 Z M288.43745,272.683475 C290.316364,270.756383 291.906215,268.492051 293.158824,265.986832 L290.075478,264.830577 C288.919223,267.239441 287.473904,269.311065 285.691344,271.093625 L288.43745,272.683475 Z M287.762968,288.919223 L268.68476,288.919223 C270.226433,287.473904 271.623575,285.884053 272.972539,284.149671 L283.667898,284.149671 C284.727798,285.787699 286.076762,287.377549 287.762968,288.919223 Z" id="此处无试卷" fill-rule="nonzero"></path>
        </g>
    </g>
</svg>